<?xml version="1.0" encoding="utf-8"?>
<!-- Generator: Adobe Illustrator 14.0.0, SVG Export Plug-In . SVG Version: 6.00 Build 43363)  -->
<!DOCTYPE svg PUBLIC "-//W3C//DTD SVG 1.1//EN" "http://www.w3.org/Graphics/SVG/1.1/DTD/svg11.dtd">
<svg version="1.1" id="Layer_1" xmlns="http://www.w3.org/2000/svg" xmlns:xlink="http://www.w3.org/1999/xlink" x="0px" y="0px"
	 width="839.958px" height="1037.948px" viewBox="0 0 839.958 1037.948" enable-background="new 0 0 839.958 1037.948"
	 xml:space="preserve">
<path fill="#515050" d="M766.533,670.519c0,0.31,0,0.616,0,0.924C656.358,788.545,548.13,907.576,437.548,1024.275
	C318.754,906.983,200.337,789.29,81.184,672.366c0-0.309,0-0.613,0-0.926c3.919-9.295,8.034-20.194,11.863-30.479
	c50.133-134.624,100.103-265.39,150.119-399.479c3.348-8.969,6.704-20.073,11.864-30.479c2.236-4.513,4.436-8.399,7.301-13.854
	c2.347-4.463,5.517-12.543,7.759-13.395c3.383-1.282,12.987,0.338,19.165,0.462c97.439,1.946,192.597,5.847,288.834,7.852
	C641.569,350.857,703.172,511.6,766.533,670.519z"/>
<path d="M436.546,938.751c-0.313,0.006-0.616,0.012-0.925,0.017c-92.711-87.648-185.898-174.808-279.2-261.848
	c-0.007-0.309-0.012-0.614-0.017-0.922C204.858,535.525,251.58,393.402,300.38,253.27c5.758-0.941,11.854-1.56,17.978-2.147
	c0.545,84.121,0.563,167.725,1.441,252.17c71.107-1.188,142.225-2.377,213.335-3.563c-1.444-84.002-3.513-167.354-5.123-251.183
	c5.851-0.102,11.697-0.196,17.55-0.297c26.099,66.05,51.83,132.576,78.146,198.691c26.418,66.37,50.984,133.323,78.605,198.688
	C614.003,743.601,524.66,840.583,436.546,938.751z"/>
<path fill="#515050" d="M419.239,453.922c5.078,0,10.159,0,15.239,0c51.521,3.388,88.146,25.335,115.917,53.105
	c27.77,27.771,46.508,67.646,50.338,118.688c0,5.082,0,10.162,0,15.24c-3.842,51.036-22.57,90.928-50.338,118.688
	c-27.771,27.774-64.396,49.727-115.917,53.108c-5.08,0-10.161,0-15.239,0c-51.521-3.389-88.142-25.334-115.919-53.108
	c-27.761-27.763-46.493-67.651-50.339-118.688c0-5.078,0-10.158,0-15.24c0.359-0.101,0.538-0.385,0.463-0.922
	c3.063-51.427,22.781-90.208,50.337-117.771C331.484,479.335,367.653,457.071,419.239,453.922z"/>
<path d="M552.951,660.467c1.62,0.265,3.358,0.412,5.343,0.313c4.279,2.844,3.351,10.897,9.744,11.63
	c1.303,8.403-4.736,14.397-4.089,24.196c-1.776,2.311-3.729,4.438-6.601,5.658c-6.979-0.729-13.919,0.549-20.742-0.313
	c-3.599-0.452-7.028-2.312-10.371-2.515c-1.281-0.078-2.506,0.474-4.086,0.627c-2.198,0.217-4.969-0.422-6.601,0
	c-2.545,0.66-4.756,3.739-7.229,5.342c-1.686,1.096-3.5,1.305-4.717,2.828c-0.896,6.021-6.23,7.593-8.48,12.259
	c0,0.94,0,1.888,0,2.825c-3.438,2.619-3.119,8.922-1.89,13.828c-4.146,2.045-8.399-1.021-11.628,0.629
	c-1.799,0.92-1.974,3.854-3.144,5.658c-1.599,2.465-4.248,3.963-4.715,6.601c-0.384,2.173,0.291,4.44,0,6.284
	c-0.955,0.307-1.313,1.203-1.89,1.891c-3.104-1.192-5.168-3.425-8.481-4.399c-11.955-1.375-16.92,4.239-19.17,12.569
	c-5.36,0.273-5.905-5.979-9.742-7.854c-1.286-0.631-4.338-1.517-6.603-0.939c-3.809,0.963-3.909,6.938-7.854,8.48
	c-3.417-1.927-4.599-6.084-7.854-8.17c-4.771-0.478-7.434,1.159-10.37,2.517c-1.644,1.552-2.962,4.114-5.656,3.771
	c-3.79-0.486-3.768-6.537-7.229-8.484c-1.561-0.877-5.22-1.299-8.171-0.627c-3.164,0.723-3.729,4.104-10.057,2.826
	c-1.589-2.563,0.104-5.726-0.629-8.17c-0.79-2.627-5.074-2.988-5.027-5.974c-3.316-0.563-7.396-0.354-10.058-1.569
	c-3.165-3.916,2.675-13.599-2.829-16.343c-5.83,0.175-9.763-1.551-9.429-7.541c-5.498-3.303-8.705-8.896-12.887-13.52
	c-10.438-0.07-23.771,1.533-32.685-0.938c-0.356-3.412-4.186-3.358-5.655-5.657c-0.182-3.007,0.552-5.103,0.313-8.171
	c-2.646-2.803-5.875-5.021-5.028-11.313c2.367-3.714,6.373-5.776,8.8-9.431c1.186-4.429,0.401-8.498,0-12.884
	c-0.271-3.004,0.709-6.332,0-9.43c-0.483-2.115-2.521-3.77-2.83-6.285c-0.609-4.979,2.697-9.771,1.571-16.34
	c-0.417-1.326-2.421-2.455-2.827-4.087c-0.474-1.894,0.443-4.034,0-6.286c-0.364-1.846-2.072-3.539-2.517-5.656
	c-0.188-0.911,0.118-1.92,0-2.827c-0.321-2.451-2.063-5.781-1.258-9.742c0.396-1.941,2.021-3.151,3.144-5.023
	c-0.179-8.953-1.25-17.796,3.457-22.313c-2.672-6.312,3.319-8.938,5.972-13.83c0.474-0.87,0.592-1.901,0.942-2.515
	c1.797-3.108,4.764-5.819,6.914-9.112c0.8-1.226,1.057-2.891,1.887-4.085c1.051-1.516,2.956-2.365,4.085-3.771
	c2.217-2.764,3.992-6.284,5.97-9.112c2.178-3.114,4.563-5.582,6.287-8.487c3.309-2.143,7.232-3.659,9.432-6.912
	c4.671-2.138,9.563-4.053,14.452-5.972c0.985-1.588,3.313-1.763,5.346-2.83c3.479-1.831,7.786-4.293,12.566-5.341
	c5.567-1.223,7.948-4.636,11.94-6.603c2.328-1.146,9.194-1.563,12.257-0.313c1.504,0.612,2.061,2.393,3.457,3.771
	c4.24,4.188,10.345,6.895,13.514,12.257c-1.155,7.132,1.578,13.729,0,19.481c-0.487,1.791-2.813,2.752-4.713,4.399
	c-4.347,3.771-8.304,8.894-12.886,11.938c-1.326,5.429,0.875,10.612-0.313,15.399c-0.959,3.858-5.879,4.985-7.229,8.168
	c0,1.467,0,2.938,0,4.399c-2.021,1.146-2.135,3.844-3.144,7.228c-0.419,1.405-1.452,2.213-1.571,3.146
	c-0.384,2.998,0.614,6.396,3.456,7.228c2.107-0.091,0.74-3.66,1.571-5.028c3.799-1.021,3.505-6.134,5.026-9.431
	c6.415-0.563,10.342,2.608,8.798,8.485c-0.321,1.232-2.38,2.131-2.827,3.771c-0.527,1.946,0.242,4.271,0,6.284
	c-0.523,4.359-1.915,9.072,1.57,11.313c4.961-2.146,1.866-8.441,2.829-13.516c0.692-3.652,3.954-5.439,5.027-8.173
	c-0.148-4.145,0.438-9.028-0.629-12.256c-2.069-0.969-4.944-1.133-6.914-2.2c-1.183-1.605-0.524-3.681-0.941-5.65
	c-0.229-1.096-1.094-2.148-1.258-3.146c-1.334-8.036,3.74-13.354,9.429-15.396c2.631-3.236,4.825-6.906,7.229-10.373
	c2.255-0.929,5.125,0.063,7.229,0.313c0.271,1.515,1.536,2.025,1.888,3.456c5.3,2.143,9.128,5.75,13.196,9.114
	c0.755,2.392,0.632,5.658,1.571,7.854c7.045,1.897,18.802-1.82,23.884,2.52c0.188,2.644-0.386,6.041,0.313,8.17
	c1.313,0.467,2.327,1.229,4.086,1.258c0.461,4.566,7.146,6.869,11.627,4.398c0.492-1.9-1.545-3.393,0-4.398
	c-3.645-0.34-7.771-0.188-9.742-2.202c0.438-4.521,0.104-8.271-3.457-8.798c0.664-5.898-4.643-5.831-6.911-8.801
	c-3.046,2.492-5.854-1.149-7.854-1.256c-3.09-0.164-4.395,4.688-8.801,2.198c-3.73-2.106-3.549-10.938-6.604-14.457
	c-2.11-2.438-5.174-1.791-7.854-2.827c-3.646-1.409-5.375-4.847-7.229-8.484c0-1.886,0-3.771,0-5.657
	c2.009-3.438,4.56-6.334,7.229-9.108c4.604-1.999,8.926-4.276,11.313-8.486c0.559-3.422,2.327-5.632,4.085-7.855
	c4.421,0.553,8.267-1.347,12.57-0.939c3.599,0.338,6.688,1.476,11.313,2.201c6.229,0.976,13.051,2.438,16.97,5.653
	c6.75,1.003,9.247,6.262,13.827,9.433c14.5,2.048,21.237,11.857,30.801,18.854c5.268,1.069,11.346,5.225,15.084,10.063
	c1.693,2.188,4.438,5.908,5.344,8.48c0.455,1.289,0.082,2.645,0.629,4.084c0.687,1.817,2.672,2.875,3.771,4.399
	c0.707,0.979,1.104,2.498,1.889,3.771c2.051,3.339,5.111,6.056,5.657,8.485c1.759,7.867-1.313,15.576,0,23.568
	c5.47,8.551,0.7,18.396-0.313,27.34c-0.483,4.265,0.896,8.198,0,11.313c-0.762,2.646-3.231,4.589-3.456,7.229
	c-0.169,1.955,0.776,3.845,0.627,5.658c-0.222,2.698-2.162,5.896-2.517,9.428C551.557,652.131,552.028,656.153,552.951,660.467z
	 M514.61,649.469c0.764-1.68,2.194-2.848,2.516-4.399c0.613-3.012-0.737-6.527-0.313-10.058c0.682-5.659,1.164-6.555-1.574-10.37
	c-1.805-2.519-3.451-5.949-5.969-6.914c-1.283-0.492-3.021,0.164-4.716-0.313c-2.12-0.604-3.383-3.295-5.342-3.771
	c-3.041-0.74-7.896,0-12.256,0c-11.533,0-29.354-0.479-37.713,0.625c-0.811,5.106-1.975,11.969-0.941,17.287
	c0.433,2.237,1.603,2.983,2.828,4.715c2.877,4.063,6.668,8.633,9.431,11.313c5.684,0.183,8.772,2.957,9.739,7.854
	c3.894,2.354,9.041,0.662,12.258,2.83c2.011,1.354,2.875,4.405,4.714,5.971c2.256,1.918,4.651,2.336,5.973,4.719
	c3.354,0,6.705,0,10.061,0c1.853-0.887,2.188-3.641,4.396-4.399c1.478-0.511,3.405,0.633,5.026-0.63
	C512.142,658.337,512.67,653.754,514.61,649.469z M343.337,663.924c2.45-1.274,5.063-1.909,7.543-3.146
	c0.835-0.416,1.712-1.648,2.829-2.197c2.668-1.313,4.309-1.021,5.342-3.457c2.063-0.031,2.247-1.943,4.4-1.889
	c4.375-5.154,11.255-7.812,17.281-11.313c0.993-2.881,3.683-4.071,5.346-6.284c-0.437-2.359,0.565-4.759,0-7.544
	c-0.814-3.985-6.482-10.196-10.062-10.997c-3.143-0.701-7.813,0-12.256,0c-8.462,0-16.773,0-25.143,0c-4.429,0-9.53-0.771-12.569,0
	c-4.606,1.172-6.979,7.717-9.429,9.741c-2.328-0.233-3.026,1.166-4.085,2.199c-1.857,8.141,6.284,11.93,2.197,18.229
	c2.391,1.358,1.145,4.664,1.569,7.543c0.712,4.752,2.889,8.866,7.229,9.744c0.146,2.469,1.03,4.202,2.197,5.653
	C334.958,671.774,338.367,666.51,343.337,663.924z M411.217,683.724c1.58-6.229-2.878-22.222,1.259-23.257
	c3.118-0.778,4.833,2.938,6.284,4.716c0.279,3.211-0.188,5.678-0.942,7.856c1.959,4.586,0.992,11.346,0.942,17.279
	c2.082,1.688,2.265,5.276,2.828,8.483c3.707,2.148,5.301,6.593,10.998,5.343c2.462-0.539,6.785-5.925,6.916-8.17
	c0.035-0.644-0.746-1.544-0.942-2.828c-0.176-1.136,0.159-2.599,0-3.459c-0.394-2.107-2.154-4.386-2.515-7.228
	c-0.664-5.235-0.299-10.61-1.89-14.455c-0.896-2.172-4.712-4.646-5.024-6.914c-0.289-2.075,1.007-3.299,1.257-5.028
	c0.688-4.754-1.376-6.873-3.142-9.109c-2.572-3.268-5.492-6.503-7.858-9.113c-5.685-2.782-12.168,4.82-12.884,8.802
	c-0.271,1.494,0.392,3.293,0,4.711c-0.478,1.729-3.021,2.836-3.456,4.399c-0.573,2.062,0.439,4.97,0,6.603
	c-3.939,2.246-6.027,6.92-4.714,13.518c-5.29,3.717-5.97,12.049-5.974,21.055c3.511,1.396,6.379,7.688,11.313,3.771
	c-0.079-2.485,0.021-4.798,0.313-6.911c2.06-2.869,4.238-5.608,6.604-8.176C410.046,684.637,411.055,684.369,411.217,683.724z"/>
<path d="M502.67,739.665c-2.063-0.453-3.641-1.395-4.713-2.83c0.322-2.928-1.063-4.646-0.631-6.914
	c0.275-1.438,1.752-2.021,2.197-3.457c0.67-2.141-0.437-3.774,0.629-5.972c5.281-0.88,10.541,1.317,10.688,5.343
	c0.064,1.9-2.271,4.299-3.457,7.229C506.221,735.928,505.51,739.101,502.67,739.665z"/>
<path d="M350.253,735.262c0.313,0.945-0.7,0.56-1.256,0.63c1.446,8.155-4.875,8.532-8.804,11.313
	c-4.819-0.871-2.146-5.19-2.196-9.434c-0.432-0.935-2.175-0.552-3.457-0.627c-0.491-1.711-1.43-2.976-1.572-5.023
	C337.53,731.237,350.124,728.76,350.253,735.262z"/>
<path d="M486.326,762.604c-8.927,1.803-8.813-5.437-8.8-12.57c2.013-3.104,7.338-8.354,12.884-5.654
	c1.92,0.937,5.582,4.229,5.657,5.344c0.184,2.63-3.246,2.966-4.713,4.396C488.854,756.563,487.989,759.878,486.326,762.604z"/>
<path d="M354.649,753.803c-0.232-7.717,8.961-4.688,9.743-0.629c0.342,1.773-0.723,2.728-0.942,4.088
	c-0.541,3.33-0.271,9.294-3.143,10.685c-1.886,0.914-3.951,0.229-6.915-0.313C350.165,764.706,348.186,754.715,354.649,753.803z"/>
<path d="M466.213,774.545c-2.303,7.095-20.446,3.248-19.797-4.397c0.125-1.476,1.389-1.865,2.514-3.457
	c1.08-1.523,1.738-3.989,3.144-5.023c3.223-2.381,8.041-1.826,12.262-1.262c1.109,3.02,6.316,3.212,6.279,5.977
	C470.581,768.971,464.396,769.446,466.213,774.545z"/>
<path d="M373.818,776.744c-1.681-7.364,5.191-8.819,6.285-14.452c8.648-0.061,11.821,6.894,10.372,15.081
	C387.017,782.549,378.576,778.435,373.818,776.744z"/>
<path d="M415.302,771.401c-0.651,5.063,0.271,8.521-3.456,11c-5.559-0.025-11.105,0.521-11.941-3.457
	c-0.363-1.741,0.934-2.479,0.943-4.086c0.016-2.043-1.348-2.984-1.571-5.023c1.396-3.565,7.063-7.052,11.628-4.399
	C412.895,766.899,413.542,769.712,415.302,771.401z"/>
<path d="M423.79,781.462c-0.229-2.213,0.148-3.828,0.938-5.026c0.16-3.563-1.313-8.039,0.313-10.369
	c3.354-4.787,15.623,2.396,13.515,10.058c-2.511,2.899-3.293,9.119-9.427,8.8C426.862,784.797,425.36,783.129,423.79,781.462z"/>
<g id="Calque_2_xA0_Image_1_">
	<g>
		<path fill="#515050" d="M12.39,11.98c272.021,0,544.028,0,816.046,0c0,68.506,0,137.008,0,205.513c-272.156,0-544.351,0-816.506,0
			c0-68.043,0-136.083,0-204.126C11.889,12.712,11.853,12.058,12.39,11.98z"/>
	</g>
</g>
<g id="Calque_3_xA0_Image_1_">
	<g>
		<path fill="#581712" d="M37.772,27.682c255.615,0,511.285,0,766.885,0c0,57.806,0,115.613,0,173.418
			c-255.764,0-511.582,0-767.333,0c0-57.354,0-114.704,0-172.055C37.283,28.4,37.248,27.759,37.772,27.682z"/>
	</g>
</g>
<g id="Calque_4_xA0_Image_1_">
	<g>
		<path d="M72.371,65.95c232.146,0,464.289,0,696.436,0c0,32.796,0,65.593,0,98.393c-232.158-0.211-465.401,0.423-696.856-0.317
			c0-32.373,0-64.746,0-97.12C71.91,66.451,71.877,66.004,72.371,65.95z"/>
	</g>
</g>
<g>
	<path fill="#581712" d="M666.324,40.922c14.937,0,29.872,0,44.809,0c0,49.567,0,99.14,0,148.708c-15.354,0-30.7,0-46.057,0
		c0-49.105,0-98.218,0-147.322C664.973,41.652,664.867,41.001,666.324,40.922z"/>
</g>
<g id="Calque_5_copie_3_xA0_Image_1_">
	<g>
		<path fill="#F9D500" d="M168.487,61.693c19.856,0,39.716,0,59.574,0c0,35.722,0,71.443,0,107.165c-20.012,0-40.023,0-60.038,0
			c0-35.377,0-70.752,0-106.128C167.986,62.239,167.948,61.752,168.487,61.693z"/>
	</g>
</g>
<g id="Calque_5_xA0_Image_1_">
	<g>
		<path fill="#F9D500" d="M697.608,61.693c25.034,0,50.069,0,75.105,0c0,35.724,0,71.448,0,107.172c-25.168,0-50.333,0-75.502,0
			c0-35.379,0-70.757,0-106.135C697.182,62.239,697.15,61.752,697.608,61.693z"/>
	</g>
</g>
<g id="Calque_5_copie_xA0_Image_1_">
	<g>
		<path fill="#F9D500" d="M627.344,61.693c15.564,0,31.138,0,46.701,0c0,35.722,0,71.443,0,107.165c-15.703,0-31.406,0-47.108,0
			c0-35.377,0-70.752,0-106.128C626.897,62.239,626.863,61.752,627.344,61.693z"/>
	</g>
</g>
<g>
	<path fill="#F9D500" d="M462.945,61.693c23.438,0,46.875,0,70.313,0c0,35.722,0,71.443,0,107.165c-23.57,0-47.146,0-70.716,0
		c0-35.377,0-70.752,0-106.128C462.506,62.239,462.477,61.752,462.945,61.693z"/>
</g>
</svg>
