<?xml version="1.0" encoding="utf-8"?>
<!-- Generator: Adobe Illustrator 14.0.0, SVG Export Plug-In . SVG Version: 6.00 Build 43363)  -->
<!DOCTYPE svg PUBLIC "-//W3C//DTD SVG 1.1//EN" "http://www.w3.org/Graphics/SVG/1.1/DTD/svg11.dtd">
<svg version="1.1" id="Layer_1" xmlns="http://www.w3.org/2000/svg" xmlns:xlink="http://www.w3.org/1999/xlink" x="0px" y="0px"
	 width="868.457px" height="1100.945px" viewBox="0 0 868.457 1100.945" enable-background="new 0 0 868.457 1100.945"
	 xml:space="preserve">
<polygon fill="#FFFFFF" points="842.122,664.338 601.982,20.923 578.491,23.533 578.491,438.556 540.643,417.673 496.269,395.487 
	455.812,388.962 408.828,388.962 378.811,388.962 346.185,395.487 322.69,417.673 284.842,437.251 287.453,39.193 274.403,28.753 
	257.435,39.193 27.738,670.865 424.489,1075.446 "/>
<path d="M582.155,11.178c0.289,0,7.51-0.865,7.799-0.865c7.57,2.248,10.891,2.031,18.844,3.897
	c83.555,217.525,167.602,434.504,251.682,651.514c0,0.289,0,0.578,0,0.867c-133.58,135.107-269.604,270.895-405.031,406.328
	c-3.797,3.801-8.572,8.344-13.582,12.494c-1.293,0.75,0.082,0.041-7.542,4.416c-1.083,0.793-2.958,2.168-8.958,2.5
	c-5.61-1.152-15.48-5.113-14.534-5.113C277.048,949.537,143.829,811.283,9.699,673.955c0-0.289,0-0.576,0-0.865
	c80.15-214.987,159.269-431.023,239.553-645.883c9.671-2.422,21.604-3.779,31.623-2.599c6.337,0.747,8.771,6.174,12.129,10.396
	c2.794,3.518,6.602,6.436,7.363,10.396c1.139,5.915,0,14.62,0,22.524c0,54.018-0.433,106.486-0.433,159.414
	c0,46.135-0.435,91.848-0.435,136.454c0,15.531-1.265,31.481,0,45.918c0.346,3.947,1.573,6.213,3.465,9.964
	c-8.805,9.69-20.361,19.493-29.457,28.59c-1.206,1.206-2.134,3.51-3.897,3.03c0.212-83.167,3.031-168.517,3.031-252.548
	c0-34.313,0.939-66.536,1.301-100.933c0.137-13.195,1.239-30.692,0.434-44.186c-0.191-3.161,0.705-3.836-1.734-4.765
	c-2.494-0.949-4.575,6.852-4.765,7.364C194.13,255.561,124.044,450.926,50.417,649.261c-1.63,4.389-6.936,16.326-6.931,19.926
	c0.001,2.662,7.163,8.463,10.829,12.129c28.646,28.646,55.682,57.414,83.173,84.904c93.881,93.887,185.063,190.691,278.973,284.604
	c4.284,4.285,6.241,5.861,13.861,3.898c3.845-0.99,9.45-7.719,12.995-11.264c78.834-78.838,154.508-157.104,233.057-235.654
	c45.066-45.066,89.707-91.008,135.154-136.455c2.879-2.879,10.977-9.932,10.828-12.994c-0.213-4.461-5.111-13.084-7.363-19.061
	C739.872,439.98,665.253,242.113,590.169,44.098c1.018,137.022,2.021,274.07,3.031,411.096c-4.682-2.017-9.496-5.86-15.158-9.53
	c-4.063-2.628-13.92-6.424-15.162-10.829c-1.527-5.407,0.045-16.97,0.434-25.125c0.451-9.492,0-17.755,0-25.559
	c0-111.098-0.434-222.214-0.434-332.255c0-8.19-1.521-18.922,0-25.991c0.645-3.005,6.74-8.609,9.746-11.264
	C578.257,12.91,577.392,12.91,582.155,11.178z"/>
<path d="M420.788,363.014c7.659,0,15.319,0,22.981,0c70.91,5.489,123.502,33.229,161.313,72.479
	c37.811,39.252,66.646,90.743,71.154,162.641c0,7.365,0,14.73,0,22.1c-4.32,72.066-33.646,123.119-71.154,162.639
	c-37.521,39.529-90.693,66.709-161.313,72.48c-7.662,0-15.322,0-22.981,0c-70.846-5.564-123.506-33.23-161.313-72.48
	c-37.809-39.25-66.63-90.76-71.154-162.639c0-7.367,0-14.732,0-22.102c0.344-0.098,0.514-0.369,0.441-0.885
	c4.508-71.565,32.771-123.434,70.713-162.195C297.521,396.185,350.05,368.526,420.788,363.014z M609.503,628.187
	c0.492-4.967,3.225-9.461,3.535-13.26c0.209-2.553-1.119-5.207-0.885-7.955c0.314-3.713,3.791-6.451,4.859-10.164
	c1.264-4.381-0.682-9.914,0-15.91c1.43-12.584,8.133-26.426,0.441-38.45c-1.85-11.237,2.471-22.08,0-33.146
	c-0.766-3.423-5.074-7.24-7.955-11.936c-1.1-1.791-1.658-3.922-2.65-5.304c-1.547-2.147-4.338-3.632-5.305-6.188
	c-0.77-2.031-0.246-3.936-0.885-5.744c-1.275-3.618-5.127-8.851-7.514-11.935c-5.262-6.8-13.809-12.639-21.215-14.144
	c-13.441-9.832-22.92-23.633-43.313-26.519c-6.441-4.459-9.955-11.848-19.445-13.259c-5.514-4.521-15.105-6.583-23.863-7.955
	c-6.508-1.02-10.855-2.62-15.91-3.094c-6.057-0.567-11.465,2.099-17.68,1.324c-2.473,3.129-4.961,6.235-5.744,11.05
	c-3.361,5.921-9.439,9.123-15.911,11.934c-3.755,3.906-7.777,4.479-10.602,9.314c0,2.649-0.884,7.515-0.884,10.165
	c2.604,5.121,6.354,11.242,11.483,13.225c3.771,1.459,8.077,0.558,11.049,3.979c4.295,4.947,4.033,17.365,9.279,20.33
	c6.199,3.502,8.033-3.323,12.375-3.096c2.816,0.149,4.563,8.402,8.848,4.896c3.189,4.176,12.855,0.949,11.926,9.246
	c5.01,0.733,3.271,2.071,2.658,8.434c2.771,2.827,5.928,6.594,11.049,7.07c-2.174,1.424,5.545,3.479,4.855,6.15
	c-6.307,3.475-15.703,0.237-16.355-6.188c-2.473-0.031-3.451-3.285-5.295-3.943c-0.984-2.99-0.631-5.598-0.895-9.313
	c-3.879-3.313-5.996-4.411-12.365-4.826c-0.432-0.027-4.432-3.066-4.861-3.094c-4.957-0.295-10.416,2.892-14.584,1.769
	c-1.326-3.096-6.453-10.783-7.514-14.144c-5.729-4.729-0.064-4.943-7.515-7.955c-0.486-2.018-9.791-1.891-10.173-4.015
	c-2.959-0.354-4.775-6.127-7.948-4.824c-3.378,4.872-11.489,10.164-15.024,16.353c-6.63,3.536-12.49,12.972-10.614,24.271
	c0.231,1.399-1.202,6.017-0.877,7.549c0.589,2.777,0.549,3.479,2.21,5.745c2.771,1.503,4.604,3.059,7.514,4.42
	c1.506,4.536,0.008,8.874,2.209,14.584c-1.51,3.838-3.45,6.759-4.426,11.896c-1.354,7.129,2.997,15.991-3.978,19.004
	c-4.907-3.152-2.95-9.775-2.21-15.908c0.341-2.841-0.747-6.104,0-8.842c0.63-2.31,3.521-3.564,3.978-5.303
	c2.169-8.267-4.854-14.992-11.926-19.411c-2.143,4.638,0.744,7.892-4.6,9.323c-1.168,1.924-2.163,18.358-5.133,18.483
	c-4-1.163-5.4-5.941-4.859-10.165c0.168-1.31,1.62-2.443,2.21-4.419c1.418-4.762,1.578-8.552,4.42-10.165
	c0-2.063,2.217-4.976,2.217-7.035c1.898-4.479,6.599-5.215,7.947-10.646c1.674-6.729,1.233-13.548,3.102-21.179
	c6.442-4.29,10.242-10.167,16.354-15.469c2.673-2.319,8.146-8.974,8.839-11.49c2.219-8.091-4.729-13.871-3.103-23.899
	c-4.454-7.544-13.041-11.353-19.005-17.234c-1.965-1.939-2.746-4.44-4.86-5.305c-4.307-1.758-13.962-1.17-17.235,0.441
	c-5.615,2.764-8.962,7.563-16.794,9.28c-6.729,1.477-12.785,4.938-17.68,7.514c-2.854,1.503-6.127,1.746-7.514,3.979
	c-6.877,2.697-13.761,5.392-20.33,8.396c-3.085,4.575-8.608,6.711-13.259,9.725c-2.427,4.086-5.781,7.556-8.839,11.934
	c-2.781,3.983-5.279,8.938-8.396,12.816c-1.586,1.976-4.267,3.174-5.745,5.304c-1.167,1.681-1.528,4.021-2.651,5.745
	c-3.025,4.634-7.198,8.441-9.724,12.814c-0.493,0.855-0.663,2.313-1.325,3.535c-3.729,6.877-12.156,10.574-8.397,19.446
	c-6.619,6.354-5.113,18.789-4.86,31.379c-1.58,2.637-3.864,4.338-4.42,7.07c-1.132,5.57,1.316,10.254,1.768,13.697
	c0.168,1.281-0.267,2.697,0,3.98c0.621,2.979,3.024,5.357,3.536,7.955c0.624,3.166-0.665,6.18,0,8.84
	c0.573,2.293,3.391,3.881,3.978,5.744c1.583,9.236-3.07,15.979-2.21,22.979c0.437,3.545,3.295,5.863,3.979,8.842
	c0.999,4.354-0.387,9.031,0,13.26c0.563,6.17,1.663,11.893,0,18.119c-3.413,5.133-9.048,8.041-12.375,13.26
	c-1.188,8.85,3.354,11.967,7.071,15.91c0.336,4.313-0.694,7.262-0.441,11.488c2.072,3.232,7.451,3.156,7.955,7.955
	c12.529,3.482,31.282,1.221,45.963,1.326c5.879,6.496,10.39,14.359,18.12,19.004c-0.471,8.426,1.797,11.801,9.996,11.559
	c7.737,3.855,2.791,16.523,7.239,22.031c3.741,1.709,5.331,2.369,9.994,3.156c-0.063,4.195,5.52,6.25,6.631,9.943
	c1.033,3.438,3.729,8.99,5.967,12.596c8.892,1.795,6.043-5.967,10.604-5.967c3.979,0,10.401,2.082,12.596,3.314
	c4.872,2.738,6.775,7.209,12.104,7.893c3.789,0.486,6.137-0.408,8.443-2.588c4.135-1.906,6.55-3.984,13.26-3.314
	c4.578,2.938,7.081,5.848,11.886,8.557c5.546-2.172,5.303-7.865,10.652-9.219c3.181-0.807,6.81,1.768,8.617,2.65
	c5.395,2.641,7.219,7.398,14.76,7.008c3.162-11.717,6.877-16.23,23.688-14.301c4.664,1.377,10.842,1.133,15.203,2.811
	c0.809-0.963,1.311-2.227,2.65-2.648c0.408-2.596-0.541-5.787,0-8.84c0.656-3.707,4.385-5.814,6.631-9.281
	c1.646-2.539,1.893-6.66,4.418-7.955c4.537-2.324,10.521,1.988,16.355-0.883c-1.734-6.9-2.184-15.77,2.648-19.447
	c0-1.326,5.125-6.785,5.125-8.111c3.164-6.559,5.547-4.643,6.813-13.102c1.705-2.148,4.262-2.441,6.629-3.98
	c3.475-2.254,6.586-6.584,10.164-7.512c2.293-0.596,6.186,0.303,9.281,0c2.221-0.219,3.938-0.994,5.744-0.885
	c4.695,0.285,9.525,2.895,14.584,3.535c9.598,1.213,19.352-0.584,29.168,0.439c4.031-1.713,6.779-4.711,9.281-7.955
	c-0.914-13.775,7.578-22.207,5.744-34.027c-8.988-1.027-7.676-12.359-13.699-16.355c-2.787,0.135-5.23-0.066-7.514-0.439
	C609.532,640.242,608.866,634.583,609.503,628.187z M546.745,748.398c1.668-4.117,4.955-7.484,4.859-10.164
	c-0.203-5.656-7.602-8.75-15.025-7.514c-1.5,3.088,0.057,5.395-0.885,8.395c-0.633,2.021-2.705,2.842-3.094,4.861
	c-0.613,3.188,1.342,5.607,0.885,9.723c1.514,2.023,3.729,3.342,6.629,3.98C544.11,756.89,545.112,752.431,546.745,748.398z
	 M301.459,747.072c0.204,2.891,1.521,4.668,2.21,7.07c1.809,0.105,4.261-0.432,4.86,0.885c0.076,5.959-3.688,12.033,3.095,13.26
	c5.52-3.91,14.415-4.439,12.375-15.91c0.781-0.102,2.213,0.445,1.769-0.885C325.587,742.349,307.88,745.835,301.459,747.072z
	 M524.204,778.009c2.064-2.018,6.881-2.488,6.631-6.188c-0.105-1.564-5.264-6.201-7.955-7.514
	c-7.801-3.799-15.293,3.584-18.121,7.955c-0.016,10.033-0.18,20.215,12.375,17.678C519.474,786.103,520.688,781.447,524.204,778.009
	z M330.187,797.013c4.168,0.76,7.071,1.729,9.725,0.441c4.04-1.959,3.656-10.344,4.419-15.025c0.312-1.91,1.808-3.246,1.325-5.744
	c-1.1-5.713-14.033-9.971-13.699,0.885C322.863,778.849,325.646,792.896,330.187,797.013z M495.034,795.246
	c0.055-3.883-7.271-4.152-8.838-8.396c-5.93-0.803-12.711-1.574-17.236,1.77c-1.977,1.459-2.9,4.924-4.42,7.07
	c-1.582,2.238-3.359,2.789-3.535,4.861c-0.912,10.754,24.604,16.16,27.844,6.188C486.292,799.568,494.985,798.898,495.034,795.246z
	 M382.337,810.712c2.039-11.518-2.421-21.293-14.585-21.213c-1.537,7.926-11.202,9.971-8.839,20.33
	C365.602,812.203,377.472,817.992,382.337,810.712z M411.065,793.921c-6.424-3.729-14.39,1.172-16.353,6.188
	c0.314,2.869,2.23,4.197,2.209,7.07c-0.019,2.256-1.842,3.293-1.324,5.746c1.177,5.596,8.977,4.818,16.794,4.859
	c5.242-3.488,3.944-8.352,4.86-15.469C414.774,799.933,413.864,795.982,411.065,793.921z M436.698,821.32
	c8.625,0.453,9.727-8.291,13.26-12.373c2.965-10.771-14.294-20.873-19.004-14.145c-2.296,3.277-0.22,9.568-0.442,14.584
	c-1.109,1.688-1.642,3.957-1.324,7.07C431.399,818.806,433.507,821.154,436.698,821.32z"/>
<path d="M554.259,651.167c-2.279,1.771-5,0.168-7.07,0.887c-3.105,1.072-3.582,4.945-6.189,6.188c-4.715,0-9.43,0-14.143,0
	c-1.855-3.344-5.227-3.934-8.396-6.631c-2.588-2.199-3.805-6.492-6.629-8.396c-4.523-3.049-11.766-0.67-17.236-3.979
	c-1.361-6.891-5.709-10.793-13.699-11.051c-3.881-3.77-9.217-10.201-13.262-15.91c-1.725-2.434-3.365-3.484-3.979-6.629
	c-1.445-7.48,0.189-17.127,1.326-24.311c4.316-0.57,12.195-1.65,19.004-1.768c11.73-0.195,23.768,0.885,34.029,0.885
	c6.135,0,12.957-1.037,17.236,0c2.756,0.67,4.529,4.459,7.514,5.305c2.381,0.674,4.826-0.248,6.631,0.439
	c3.537,1.355,5.855,6.186,8.395,9.725c3.854,5.365,3.17,6.629,2.211,14.584c-0.6,4.961,1.311,9.91,0.439,14.145
	c-0.447,2.184-2.469,3.826-3.535,6.188C554.181,636.869,553.438,643.308,554.259,651.167z"/>
<path d="M291.294,660.007c-1.643-2.039-2.885-4.48-3.094-7.955c-6.104-1.229-9.165-7.018-10.165-13.699
	c-0.605-4.049,2.038-9.545-1.318-11.457c2.651-9.279-6.598-13.338-3.983-24.783c1.487-1.457,2.47-3.422,5.744-3.094
	c3.442-2.85,5.46-10.689,11.939-12.34c4.275-1.09,12.772-1.361,18.997-1.361c11.769,0,23.454,0,35.355,0
	c6.247,0,12.816-0.986,17.235,0c5.026,1.125,12.995,9.861,14.144,15.469c0.8,3.914-0.609,7.289,0,10.605
	c-2.339,3.111-6.116,4.787-7.515,8.84c-8.479,4.93-18.153,8.658-24.308,15.91c-3.028-0.082-3.286,2.605-6.188,2.65
	c-1.455,3.422-3.763,3.021-7.514,4.861c-1.57,0.77-2.804,2.51-3.979,3.094c-3.482,1.732-7.161,2.627-10.606,4.42
	C309.058,654.804,304.258,662.208,291.294,660.007z"/>
<path d="M410.623,681.664c-3.322,3.604-6.394,7.455-9.281,11.49c-0.413,2.977-0.554,6.223-0.441,9.723
	c-6.94,5.512-10.979-3.34-15.91-5.303c0.006-12.664,0.957-24.383,8.396-29.611c-1.849-9.271,1.09-15.844,6.63-19.004
	c0.622-2.295-0.807-6.383,0-9.279c0.611-2.201,4.193-3.756,4.861-6.189c0.547-1.998-0.379-4.525,0-6.631
	c1.006-5.598,10.124-16.291,18.12-12.375c3.326,3.674,7.43,8.229,11.049,12.818c2.482,3.148,5.386,6.133,4.419,12.814
	c-0.354,2.438-2.176,4.15-1.77,7.07c0.445,3.193,5.813,6.672,7.072,9.723c2.229,5.408,1.717,12.967,2.648,20.33
	c0.508,4,2.982,7.191,3.537,10.166c0.225,1.209-0.246,3.268,0,4.859c0.275,1.811,1.377,3.072,1.324,3.979
	c-0.184,3.16-6.262,10.732-9.725,11.492c-8.016,1.758-10.257-4.494-15.469-7.516c-0.792-4.512-1.048-9.561-3.978-11.934
	c0.066-8.35,1.428-17.854-1.325-24.309c1.061-3.063,1.719-6.529,1.325-11.049c-2.039-2.494-4.45-7.729-8.84-6.631
	c-5.814,1.455,0.453,23.945-1.769,32.703C411.276,679.921,409.858,680.296,410.623,681.664z"/>
<g>
	<path d="M444.579,888.425v7.125h18.195c-3.25,18.213-6.959,36.574-10.607,54.381c2.504,0,5.008,0,7.514,0
		c3.295-18.215,6.756-36.262,10.605-53.92c0-0.152,0-0.309,0-0.461v-7.125H444.579z"/>
	<rect x="425.181" y="888.527" width="7.125" height="61.375"/>
	<polygon points="381.823,949.832 403.167,949.832 403.167,942.707 388.948,942.707 388.948,895.576 403.167,895.576 
		403.167,888.457 381.823,888.457 	"/>
</g>
</svg>
