<?xml version="1.0" encoding="utf-8"?>
<!-- Generator: Adobe Illustrator 14.0.0, SVG Export Plug-In . SVG Version: 6.00 Build 43363)  -->
<!DOCTYPE svg PUBLIC "-//W3C//DTD SVG 1.1//EN" "http://www.w3.org/Graphics/SVG/1.1/DTD/svg11.dtd">
<svg version="1.1" id="Layer_1" xmlns="http://www.w3.org/2000/svg" xmlns:xlink="http://www.w3.org/1999/xlink" x="0px" y="0px"
	 width="565px" height="501px" viewBox="0 0 565 501" enable-background="new 0 0 565 501" xml:space="preserve">
<rect x="12" y="393.784" width="541" height="96"/>
<g id="Layer_4">
	<g>
		<path fill="#9B8234" d="M71.016,471.577h-7.972l-18.125-36.566v36.566h-8.937V412h7.973l18.126,36.481V412h8.935V471.577z"/>
		<path fill="#9B8234" d="M113.954,441.788c0,6.474-0.193,10.965-0.579,13.476c-0.559,4.127-1.889,7.561-3.986,10.291
			c-3.342,4.354-7.455,6.526-12.341,6.526c-4.928,0-9.063-2.176-12.405-6.526c-2.058-2.679-3.387-6.106-3.984-10.291
			c-0.345-2.454-0.516-6.944-0.516-13.476c0-6.525,0.171-11.02,0.516-13.473c0.6-4.187,1.928-7.613,3.984-10.296
			c3.342-4.351,7.479-6.523,12.405-6.523c4.886,0,8.999,2.176,12.341,6.523c2.099,2.732,3.429,6.168,3.986,10.296
			C113.761,430.826,113.954,435.318,113.954,441.788z M105.02,441.788c0-4.569-0.043-7.477-0.129-8.7
			c-0.257-3.684-0.965-6.361-2.122-8.033c-1.457-2.121-3.365-3.183-5.72-3.183c-2.4,0-4.329,1.062-5.785,3.183
			c-1.115,1.672-1.8,4.353-2.057,8.033c-0.086,1.005-0.128,3.904-0.128,8.7c0,4.799,0.042,7.698,0.128,8.703
			c0.257,3.684,0.94,6.358,2.057,8.033c1.456,2.12,3.384,3.181,5.785,3.181c2.657,0,4.735-1.339,6.235-4.016
			C104.44,455.624,105.02,450.324,105.02,441.788z"/>
		<path fill="#9B8234" d="M154.899,412l-15.17,59.577h-6.685L117.938,412h9.257l9.191,38.824L145.578,412H154.899z"/>
		<path fill="#9B8234" d="M195.779,471.577h-9.318l-2.699-10.542h-16.265l-2.765,10.542h-9.319L172.06,412h7.006L195.779,471.577z
			 M181.381,451.244l-5.592-21.675l-5.785,21.675H181.381z"/>
		<path fill="#9B8234" d="M249.193,430.574c0,5.245-1.33,9.6-3.983,13.057c-2.829,3.684-6.535,5.522-11.12,5.522h-8.808v22.424
			h-8.935V412h17.741c4.584,0,8.291,1.84,11.12,5.521C247.863,420.98,249.193,425.332,249.193,430.574z M240.258,430.574
			c0-2.454-0.602-4.437-1.799-5.938c-1.2-1.509-2.809-2.266-4.822-2.266h-8.356v16.321h8.356c2.015,0,3.622-0.739,4.822-2.22
			C239.658,434.998,240.258,433.031,240.258,430.574z"/>
		<path fill="#9B8234" d="M291.359,471.577h-10.35l-8.935-23.766h-6.429v23.766h-8.936V412h17.934c4.541,0,8.186,1.785,10.926,5.355
			c2.613,3.396,3.924,7.696,3.924,12.885c0,3.963-0.836,7.364-2.51,10.211c-1.5,2.511-3.446,4.321-5.85,5.438L291.359,471.577z
			 M280.562,430.197c0-2.327-0.603-4.213-1.801-5.659c-1.2-1.442-2.764-2.166-4.693-2.166h-8.419v15.651h8.419
			c1.931,0,3.493-0.724,4.693-2.166C279.959,434.416,280.562,432.531,280.562,430.197z"/>
		<path fill="#9B8234" d="M331.018,441.788c0,6.474-0.188,10.965-0.577,13.476c-0.558,4.127-1.888,7.561-3.982,10.291
			c-3.345,4.354-7.457,6.526-12.344,6.526c-4.927,0-9.063-2.176-12.403-6.526c-2.061-2.679-3.389-6.106-3.984-10.291
			c-0.344-2.454-0.516-6.944-0.516-13.476c0-6.525,0.172-11.02,0.516-13.473c0.599-4.187,1.928-7.613,3.984-10.296
			c3.343-4.351,7.479-6.523,12.403-6.523c4.887,0,8.999,2.176,12.344,6.523c2.098,2.732,3.428,6.168,3.982,10.296
			C330.826,430.826,331.018,435.318,331.018,441.788z M322.085,441.788c0-4.569-0.044-7.477-0.13-8.7
			c-0.258-3.684-0.966-6.361-2.121-8.033c-1.457-2.121-3.364-3.183-5.723-3.183c-2.399,0-4.327,1.062-5.783,3.183
			c-1.114,1.672-1.802,4.353-2.059,8.033c-0.087,1.005-0.13,3.904-0.13,8.7c0,4.799,0.043,7.698,0.13,8.703
			c0.257,3.684,0.941,6.358,2.059,8.033c1.456,2.12,3.384,3.181,5.783,3.181c2.656,0,4.733-1.339,6.233-4.016
			C321.506,455.624,322.085,450.324,322.085,441.788z"/>
		<path fill="#9B8234" d="M369.778,454.009c0,5.634-1.598,10.056-4.789,13.261c-3.192,3.213-7.253,4.813-12.181,4.813
			c-7.156,0-12.728-2.621-16.714-7.865l5.785-7.531c2.573,3.349,6.257,5.021,11.058,5.021c5.397,0,8.102-2.457,8.102-7.364
			c0-2.229-0.449-3.891-1.352-4.979c-0.899-1.089-2.271-1.8-4.115-2.132l-5.525-1.008c-8.101-1.449-12.146-6.999-12.146-16.652
			c0-5.408,1.438-9.774,4.309-13.095c2.87-3.318,6.749-4.979,11.635-4.979c6.168,0,11.098,2.314,14.783,6.943l-5.657,7.278
			c-2.188-2.729-5.313-4.101-9.384-4.101c-2.272,0-4.021,0.712-5.24,2.136c-1.22,1.422-1.831,3.223-1.831,5.397
			c0,1.729,0.482,3.18,1.446,4.354c0.964,1.17,2.346,1.924,4.146,2.26l5.398,1.003c3.897,0.725,6.813,2.261,8.743,4.604
			C368.599,444.27,369.778,448.481,369.778,454.009z"/>
		<path fill="#9B8234" d="M410.979,430.574c0,5.245-1.327,9.6-3.983,13.057c-2.829,3.684-6.536,5.522-11.12,5.522h-8.808v22.424
			h-8.935V412h17.739c4.586,0,8.293,1.84,11.12,5.521C409.651,420.98,410.979,425.332,410.979,430.574z M402.045,430.574
			c0-2.454-0.602-4.437-1.801-5.938c-1.198-1.509-2.81-2.266-4.82-2.266h-8.355v16.321h8.355c2.015,0,3.622-0.739,4.82-2.22
			C401.445,434.998,402.045,433.031,402.045,430.574z"/>
		<path fill="#9B8234" d="M448.646,471.577H418.5V412h30.146v10.372h-21.214v13.978h18.063v10.378h-18.063v14.477h21.214V471.577
			L448.646,471.577z"/>
		<path fill="#9B8234" d="M494.41,471.577H484l-11.768-27.108l-5.912,9.203v17.905h-8.937V412h8.937v25.94L482.454,412h10.863
			l-15.169,23.681L494.41,471.577z"/>
		<path fill="#9B8234" d="M529.572,422.372h-11.956v49.205h-8.935v-49.205h-11.955V412h32.846V422.372z"/>
	</g>
</g>
<g id="Layer_2">
	<g id="Layer_3">
		<polygon fill="#9B8234" points="283.5,52.716 446.5,349.716 119.461,348.955 		"/>
	</g>
	
		<g id="svg2_1_" inkscape:output_extension="org.inkscape.output.svg.inkscape" xmlns:cc="http://creativecommons.org/ns#" xmlns:dc="http://purl.org/dc/elements/1.1/" xmlns:inkscape="http://www.inkscape.org/namespaces/inkscape" xmlns:sodipodi="http://sodipodi.sourceforge.net/DTD/sodipodi-0.dtd" xmlns:rdf="http://www.w3.org/1999/02/22-rdf-syntax-ns#" xmlns:svg="http://www.w3.org/2000/svg" inkscape:version="0.46" sodipodi:version="0.32" sodipodi:docname="Cyclopropene 2D skeletal.svg">
		<defs>
			
			
				<inkscape:perspective  id="perspective9" inkscape:vp_y="0 : 1000 : 0" inkscape:vp_x="0 : 526.18109 : 1" sodipodi:type="inkscape:persp3d" inkscape:vp_z="744.09448 : 526.18109 : 1" inkscape:persp3d-origin="372.04724 : 350.78739 : 1">
				</inkscape:perspective>
		</defs>
		
			<sodipodi:namedview  id="base" pagecolor="#ffffff" guidetolerance="10.0" inkscape:cx="236.23444" borderopacity="1.0" bordercolor="#666666" objecttolerance="10.0" showgrid="false" gridtolerance="10.0" inkscape:zoom="0.98089172" inkscape:cy="199.45486" inkscape:pageopacity="0.0" inkscape:window-width="1680" inkscape:current-layer="svg2" inkscape:window-y="-8" inkscape:window-height="1000" inkscape:pageshadow="2" inkscape:window-x="-8">
			</sodipodi:namedview>
		
			<path id="path2450_1_" sodipodi:r1="143.02551" sodipodi:cy="96.850647" sodipodi:sides="3" sodipodi:type="star" sodipodi:arg2="1.5778374" sodipodi:cx="132.53247" sodipodi:r2="71.512764" sodipodi:arg1="0.53063986" inkscape:rounded="0" inkscape:randomized="0" inkscape:flatsided="true" fill="none" stroke="#010101" stroke-width="35" d="
			M446.5,349.716l-327.039-0.761L283.605,48.654L446.5,349.716z"/>
	</g>
	<circle fill="#CCCCCC" cx="283" cy="164.216" r="15.5"/>
	<path fill="none" stroke="#CCCCCC" stroke-width="24" d="M233,210l90.5,0.716v30c0,0-93.833-11.05-89.833,72.617"/>
	<line fill="none" stroke="#CCCCCC" stroke-width="24" x1="274.633" y1="285.125" x2="363.667" y2="283"/>
	<line fill="none" stroke="#CCCCCC" stroke-width="24" x1="318.667" y1="314" x2="318.834" y2="288"/>
	<rect x="309.875" y="252.25" fill="#9B8234" width="28.625" height="2.75"/>
</g>
</svg>
