<?xml version="1.0" encoding="utf-8"?>
<!-- Generator: Adobe Illustrator 14.0.0, SVG Export Plug-In . SVG Version: 6.00 Build 43363)  -->
<!DOCTYPE svg PUBLIC "-//W3C//DTD SVG 1.1//EN" "http://www.w3.org/Graphics/SVG/1.1/DTD/svg11.dtd">
<svg version="1.1" id="Layer_1" xmlns="http://www.w3.org/2000/svg" xmlns:xlink="http://www.w3.org/1999/xlink" x="0px" y="0px"
	 width="469px" height="469px" viewBox="0 0 469 469" enable-background="new 0 0 469 469" xml:space="preserve">
<circle fill="#101010" stroke="#896B28" stroke-width="20" cx="234.397" cy="234.934" r="213.461"/>
<g>
	<path fill="#896B28" d="M247.098,176.254c21.783-1.702,41.619,8.049,53.976,20.063c11.594,11.271,22.045,29.396,21.976,51.588
		c-0.149,45.765-43.764,82.729-92.19,68.782c-20.938-6.029-37.316-22.224-45.377-41.078c-9.235-21.606-6.071-49.651,5.732-67.828
		c8.522-13.125,22.672-24.249,39.646-29.137C235.727,177.24,241.046,176.728,247.098,176.254z"/>
	<g>
		<g>
			<path fill="#896B28" d="M152.521,71.169c26.182,27.229,54.402,55.357,82.157,83.113c3.161,3.161,8.405,9.427,11.584,11.106
				c1.463-0.077,2.937-0.121,4.418-0.121c45.506,0,82.396,36.891,82.396,82.396s-36.891,82.396-82.396,82.396
				s-82.396-36.891-82.396-82.396c0-1.733,0.071-3.453,0.177-5.162c-2.144-3.249-7.728-7.403-10.687-10.362
				c-28.276-28.277-56.333-55.229-84.067-82.157c32.168,69.095,63.823,138.704,96.01,207.782h185.81V165.746
				C288.688,133.39,219.611,103.273,152.521,71.169z"/>
		</g>
	</g>
</g>
</svg>
