<?xml version="1.0" encoding="utf-8"?>
<!-- Generator: Adobe Illustrator 14.0.0, SVG Export Plug-In . SVG Version: 6.00 Build 43363)  -->
<!DOCTYPE svg PUBLIC "-//W3C//DTD SVG 1.1//EN" "http://www.w3.org/Graphics/SVG/1.1/DTD/svg11.dtd">
<svg version="1.1" id="Layer_1" xmlns="http://www.w3.org/2000/svg" xmlns:xlink="http://www.w3.org/1999/xlink" x="0px" y="0px"
	 width="821.959px" height="1048.449px" viewBox="20.649 28.254 821.959 1048.449"
	 enable-background="new 20.649 28.254 821.959 1048.449" xml:space="preserve">
<g id="Layer_2">
	<rect x="20.649" y="28.254" fill="#482718" width="821.959" height="1048.449"/>
</g>
<path fill="#705448" d="M327.108,753.3c-0.18-9.145-17.887-5.656-24.308-4.42c0.204,2.891,1.52,4.668,2.21,7.07
	c1.808,0.105,4.261-0.432,4.859,0.885c0.076,5.959-3.688,12.033,3.096,13.26c5.519-3.91,14.415-4.441,12.375-15.91
	C326.121,754.082,327.553,754.63,327.108,753.3z"/>
<path fill="#705448" d="M270.534,477.073c-1.167,1.682-1.527,4.022-2.65,5.745c-3.025,4.634-7.198,8.442-9.725,12.815
	c-0.493,0.854-0.663,2.313-1.325,3.535c-3.729,6.877-12.155,10.573-8.396,19.445c-6.619,6.354-5.113,18.79-4.86,31.379
	c-1.58,2.637-3.864,4.338-4.42,7.07c-1.132,5.57,1.316,10.254,1.769,13.699c0.168,1.279-0.268,2.695,0,3.979
	c0.62,2.979,3.023,5.357,3.535,7.955c0.624,3.166-0.665,6.182,0,8.84c0.573,2.295,3.392,3.883,3.979,5.744
	c1.583,9.236-3.07,15.979-2.21,22.98c0.437,3.543,3.295,5.863,3.979,8.84c0.999,4.354-0.387,9.033,0,13.26
	c0.563,6.17,1.663,11.893,0,18.119c-3.413,5.133-9.048,8.041-12.375,13.26c-1.188,8.852,3.354,11.969,7.071,15.91
	c0.336,4.313-0.694,7.262-0.441,11.488c2.072,3.232,7.451,3.156,7.955,7.955c12.529,3.484,31.282,1.221,45.964,1.326
	c5.879,6.496,10.39,14.359,18.12,19.004c-0.472,8.428,1.797,11.801,9.996,11.559c7.736,3.855,2.79,16.523,7.238,22.031
	c3.742,1.709,5.331,2.371,9.995,3.158c-0.063,4.195,5.52,6.25,6.63,9.941c1.034,3.438,3.73,8.99,5.968,12.598
	c8.892,1.795,6.043-5.967,10.604-5.967c3.978,0,10.401,2.08,12.595,3.313c4.872,2.738,6.776,7.209,12.105,7.895
	c3.789,0.484,6.137-0.41,8.443-2.59c4.135-1.906,6.55-3.984,13.26-3.314c4.578,2.938,7.081,5.848,11.886,8.557
	c5.545-2.172,5.302-7.865,10.652-9.219c3.182-0.805,6.809,1.768,8.615,2.65c5.396,2.641,7.22,7.396,14.762,7.01
	c3.161-11.717,6.877-16.232,23.688-14.301c4.663,1.377,10.841,1.133,15.202,2.809c0.808-0.961,1.31-2.227,2.651-2.648
	c0.406-2.596-0.541-5.787,0-8.84c0.654-3.707,4.385-5.814,6.63-9.281c1.646-2.539,1.893-6.66,4.419-7.953
	c4.536-2.324,10.521,1.986,16.354-0.885c-1.733-6.9-2.182-15.768,2.65-19.445c0-1.326,5.124-6.785,5.124-8.111
	c3.164-6.561,5.547-4.645,6.812-13.104c1.705-2.146,4.263-2.441,6.63-3.979c3.475-2.256,6.586-6.586,10.164-7.514
	c2.293-0.596,6.186,0.305,9.28,0c2.222-0.219,3.938-0.994,5.745-0.885c4.696,0.285,9.525,2.895,14.584,3.535
	c9.597,1.213,19.352-0.584,29.169,0.439c4.031-1.713,6.779-4.711,9.28-7.955c-0.913-13.775,7.578-22.207,5.745-34.027
	c-8.99-1.025-7.678-12.357-13.7-16.355c-2.787,0.135-5.231-0.068-7.513-0.439c-1.295-6.059-1.96-11.715-1.323-18.113
	c0.492-4.967,3.225-9.461,3.535-13.258c0.21-2.553-1.118-5.207-0.886-7.955c0.317-3.715,3.792-6.453,4.861-10.166
	c1.262-4.381-0.682-9.914,0-15.908c1.428-12.584,8.131-26.428,0.441-38.449c-1.852-11.238,2.472-22.081,0-33.146
	c-0.767-3.423-5.075-7.24-7.955-11.935c-1.102-1.791-1.658-3.922-2.651-5.304c-1.547-2.147-4.337-3.633-5.304-6.188
	c-0.771-2.033-0.247-3.937-0.885-5.746c-1.276-3.618-5.128-8.85-7.515-11.934c-5.262-6.801-13.808-12.64-21.214-14.145
	c-13.442-9.832-22.92-23.633-43.313-26.518c-6.442-4.459-9.956-11.849-19.446-13.26c-5.513-4.521-15.105-6.583-23.864-7.955
	c-6.507-1.02-10.854-2.619-15.91-3.094c-6.056-0.566-11.465,2.1-17.679,1.324c-2.473,3.129-4.961,6.235-5.745,11.05
	c-3.359,5.922-9.438,9.123-15.91,11.935c-3.755,3.906-7.776,4.479-10.601,9.313c0,2.65-0.885,7.516-0.885,10.165
	c2.604,5.121,6.354,11.242,11.482,13.226c3.772,1.459,8.078,0.557,11.05,3.979c4.295,4.948,4.032,17.366,9.279,20.33
	c6.199,3.502,8.033-3.323,12.375-3.095c2.816,0.148,4.563,8.401,8.848,4.896c3.188,4.177,12.856,0.949,11.927,9.246
	c5.01,0.734,3.271,2.072,2.657,8.435c2.771,2.827,5.929,6.594,11.05,7.069c-2.175,1.424,5.544,3.479,4.854,6.151
	c-6.305,3.474-15.702,0.237-16.354-6.188c-2.474-0.03-3.451-3.284-5.296-3.942c-0.984-2.991-0.632-5.599-0.894-9.314
	c-3.879-3.312-5.998-4.411-12.366-4.826c-0.432-0.026-4.431-3.065-4.86-3.094c-4.958-0.295-10.416,2.893-14.585,1.77
	c-1.325-3.097-6.452-10.783-7.514-14.145c-5.729-4.729-0.063-4.942-7.516-7.955c-0.486-2.017-9.791-1.89-10.172-4.014
	c-2.959-0.354-4.777-6.127-7.947-4.825c-3.379,4.872-11.49,10.164-15.024,16.354c-6.631,3.535-12.49,12.972-10.614,24.271
	c0.23,1.4-1.202,6.018-0.877,7.549c0.589,2.778,0.549,3.479,2.21,5.745c2.77,1.503,4.604,3.06,7.514,4.42
	c1.505,4.537,0.007,8.875,2.209,14.583c-1.51,3.838-3.451,6.76-4.426,11.898c-1.354,7.129,2.997,15.99-3.979,19.004
	c-4.906-3.152-2.949-9.777-2.21-15.91c0.342-2.838-0.747-6.102,0-8.84c0.631-2.311,3.521-3.566,3.979-5.303
	c2.169-8.268-4.854-14.993-11.926-19.412c-2.144,4.637,0.743,7.89-4.601,9.324c-1.168,1.924-2.163,18.357-5.132,18.482
	c-4-1.164-5.401-5.941-4.86-10.166c0.169-1.309,1.62-2.441,2.211-4.418c1.418-4.762,1.577-8.55,4.42-10.166
	c0-2.063,2.217-4.975,2.217-7.035c1.897-4.477,6.598-5.215,7.947-10.645c1.674-6.729,1.233-13.548,3.102-21.179
	c6.442-4.29,10.242-10.167,16.354-15.47c2.674-2.318,8.146-8.973,8.84-11.489c2.219-8.092-4.729-13.871-3.103-23.899
	c-4.455-7.543-13.041-11.354-19.005-17.235c-1.965-1.938-2.746-4.439-4.861-5.305c-4.306-1.758-13.962-1.169-17.234,0.44
	c-5.615,2.766-8.962,7.563-16.794,9.28c-6.729,1.478-12.785,4.938-17.681,7.515c-2.854,1.503-6.127,1.746-7.513,3.979
	c-6.877,2.699-13.761,5.393-20.33,8.396c-3.085,4.574-8.609,6.711-13.259,9.724c-2.428,4.086-5.781,7.556-8.839,11.934
	c-2.781,3.983-5.279,8.938-8.396,12.816C274.693,473.746,272.012,474.943,270.534,477.073z M466.322,583.144
	c4.317-0.57,12.196-1.652,19.004-1.768c11.731-0.195,23.768,0.885,34.03,0.885c6.134,0,12.957-1.037,17.235,0
	c2.756,0.67,4.529,4.459,7.515,5.305c2.38,0.674,4.825-0.25,6.629,0.439c3.538,1.355,5.856,6.184,8.396,9.725
	c3.852,5.365,3.17,6.627,2.21,14.584c-0.601,4.961,1.311,9.91,0.439,14.143c-0.447,2.186-2.468,3.828-3.535,6.188
	c-2.725,6.031-3.468,12.471-2.647,20.332c-2.28,1.771-4.999,0.166-7.071,0.885c-3.104,1.074-3.581,4.945-6.188,6.188h-14.145
	c-1.854-3.346-5.226-3.934-8.396-6.631c-2.588-2.199-3.805-6.492-6.629-8.396c-4.524-3.047-11.767-0.668-17.236-3.979
	c-1.361-6.891-5.709-10.793-13.7-11.051c-3.879-3.77-9.215-10.201-13.26-15.91c-1.725-2.434-3.367-3.482-3.979-6.629
	C463.552,599.974,465.187,590.326,466.322,583.144z M394.727,669.769c-1.849-9.27,1.089-15.844,6.629-19.004
	c0.622-2.295-0.806-6.383,0-9.279c0.612-2.201,4.194-3.756,4.862-6.188c0.547-2-0.379-4.525,0-6.633
	c1.006-5.598,10.124-16.291,18.12-12.375c3.325,3.674,7.43,8.229,11.049,12.818c2.48,3.148,5.386,6.133,4.419,12.814
	c-0.354,2.438-2.176,4.15-1.77,7.07c0.445,3.193,5.813,6.672,7.071,9.725c2.23,5.406,1.717,12.967,2.65,20.33
	c0.507,3.998,2.981,7.189,3.536,10.164c0.225,1.209-0.245,3.268,0,4.859c0.274,1.811,1.377,3.072,1.324,3.979
	c-0.185,3.16-6.262,10.73-9.725,11.492c-8.016,1.758-10.257-4.494-15.469-7.516c-0.792-4.512-1.048-9.561-3.979-11.934
	c0.067-8.35,1.429-17.854-1.325-24.309c1.062-3.064,1.72-6.529,1.325-11.051c-2.039-2.494-4.45-7.727-8.84-6.629
	c-5.813,1.455,0.453,23.945-1.769,32.703c-0.226,0.916-1.644,1.291-0.878,2.658c-3.322,3.604-6.395,7.457-9.281,11.49
	c-0.413,2.977-0.554,6.225-0.442,9.725c-6.939,5.508-10.978-3.34-15.91-5.305C386.337,686.718,387.287,675,394.727,669.769z
	 M279.819,600.826c3.442-2.848,5.46-10.688,11.938-12.34c4.275-1.088,12.772-1.361,18.998-1.361h35.354
	c6.247,0,12.817-0.984,17.236,0c5.025,1.127,12.995,9.861,14.143,15.471c0.8,3.914-0.608,7.289,0,10.605
	c-2.339,3.111-6.115,4.785-7.514,8.84c-8.479,4.93-18.154,8.658-24.309,15.91c-3.027-0.082-3.285,2.605-6.188,2.65
	c-1.456,3.422-3.763,3.021-7.514,4.861c-1.57,0.771-2.805,2.51-3.979,3.094c-3.481,1.73-7.161,2.627-10.605,4.42
	c-6.982,3.637-11.781,11.039-24.745,8.838c-1.644-2.039-2.886-4.48-3.095-7.953c-6.104-1.23-9.165-7.018-10.165-13.701
	c-0.604-4.049,2.038-9.545-1.317-11.455c2.65-9.279-6.599-13.338-3.983-24.783C275.562,602.464,276.545,600.498,279.819,600.826z"/>
<path fill="#705448" d="M541.455,759.486c3.996-0.787,4.997-5.248,6.631-9.279c1.668-4.117,4.956-7.484,4.859-10.164
	c-0.203-5.656-7.602-8.75-15.024-7.516c-1.5,3.088,0.057,5.396-0.886,8.396c-0.633,2.021-2.705,2.842-3.094,4.859
	c-0.614,3.189,1.342,5.609,0.884,9.725C536.34,757.531,538.555,758.849,541.455,759.486z"/>
<path fill="#705448" d="M496.376,797.052c0.054-3.881-7.271-4.152-8.84-8.395c-5.929-0.803-12.71-1.576-17.234,1.77
	c-1.979,1.459-2.901,4.924-4.42,7.068c-1.583,2.24-3.359,2.791-3.535,4.861c-0.913,10.756,24.603,16.162,27.844,6.188
	C487.634,801.376,496.325,800.705,496.376,797.052z"/>
<path fill="#705448" d="M396.937,814.732c1.177,5.596,8.977,4.82,16.794,4.861c5.242-3.49,3.944-8.354,4.86-15.469
	c-2.479-2.385-3.389-6.336-6.188-8.396c-6.423-3.727-14.388,1.172-16.351,6.188c0.313,2.869,2.229,4.197,2.209,7.07
	C398.243,811.242,396.421,812.279,396.937,814.732z"/>
<path fill="#705448" d="M360.255,811.638c6.688,2.373,18.558,8.16,23.424,0.883c2.039-11.518-2.421-21.293-14.585-21.213
	C367.556,799.234,357.891,801.279,360.255,811.638z"/>
<path fill="#705448" d="M333.298,779.378c-9.095,1.279-6.312,15.324-1.771,19.443c4.168,0.758,7.072,1.729,9.726,0.441
	c4.04-1.959,3.655-10.344,4.419-15.025c0.311-1.912,1.807-3.246,1.324-5.746C345.896,772.779,332.964,768.523,333.298,779.378z"/>
<path fill="#705448" d="M524.22,766.115c-7.8-3.799-15.293,3.586-18.121,7.955c-0.015,10.033-0.179,20.215,12.375,17.68
	c2.341-3.838,3.556-8.494,7.071-11.932c2.063-2.018,6.88-2.488,6.63-6.189C532.069,772.064,526.912,767.429,524.22,766.115z"/>
<path fill="#705448" d="M430.526,818.265c2.213,2.35,4.321,4.695,7.512,4.863c8.625,0.451,9.728-8.291,13.261-12.375
	c2.965-10.771-14.294-20.873-19.004-14.145c-2.296,3.279-0.221,9.568-0.442,14.584C430.741,812.882,430.211,815.152,430.526,818.265
	z"/>
<path fill="#705448" d="M816.335,641.101c-75.122-199.313-149.74-397.18-224.824-595.196c0.938,126.56,1.865,253.139,2.8,379.704
	c4.192,3.771,8.233,7.668,12.111,11.692c37.811,39.252,66.646,90.743,71.153,162.639v22.1
	c-4.319,72.068-33.646,123.119-71.153,162.641c-37.521,39.529-90.692,66.709-161.313,72.479H422.13
	c-70.847-5.563-123.507-33.229-161.313-72.479c-37.81-39.25-66.63-90.76-71.154-162.641v-22.1c0.344-0.098,0.514-0.369,0.441-0.885
	c4.508-71.566,32.771-123.434,70.713-162.196c3.315-3.388,6.749-6.685,10.287-9.895c0.625-74.854,2.88-151.161,2.88-226.414
	c0-34.314,0.938-66.536,1.301-100.934c0.137-13.194,1.239-30.691,0.434-44.186c-0.19-3.161,0.705-3.836-1.733-4.766
	c-2.494-0.948-4.575,6.853-4.766,7.364C195.474,257.364,125.387,452.729,51.76,651.064c-1.63,4.391-6.936,16.328-6.931,19.928
	c0.001,2.66,7.163,8.463,10.829,12.129c28.646,28.646,55.682,57.412,83.173,84.904c93.881,93.885,185.063,190.691,278.975,284.604
	c4.283,4.285,6.24,5.861,13.859,3.896c3.846-0.988,9.449-7.717,12.995-11.264c78.834-78.836,154.508-157.104,233.058-235.652
	c45.065-45.066,89.707-91.01,135.152-136.455c2.88-2.879,10.979-9.934,10.829-12.994
	C823.483,655.701,818.587,647.078,816.335,641.101z M404.448,897.468h-14.219v47.131h14.219v7.125h-21.344v-61.375h21.344V897.468z
	 M433.587,951.793h-7.125v-61.375h7.125V951.793z M471.568,897.443c0,0.153,0,0.308,0,0.461
	c-3.851,17.659-7.313,35.705-10.606,53.919c-2.506,0-5.01,0-7.514,0c3.648-17.806,7.358-36.167,10.608-54.38H445.86v-7.125h25.708
	V897.443z"/>
</svg>
